<svg viewBox="0 0 330 200" xmlns="http://www.w3.org/2000/svg"><g><g><g><g><g><line x1="60" y1="178" x2="55" y2="178" style="visibility: inherit;" fill="rgb(0, 0, 0)" stroke="rgb(204, 204, 204)" stroke-width="1px"></line><line x1="60" y1="161.8181818181818" x2="55" y2="161.8181818181818" style="visibility: inherit;" fill="rgb(0, 0, 0)" stroke="rgb(204, 204, 204)" stroke-width="1px"></line><line x1="60" y1="145.63636363636363" x2="55" y2="145.63636363636363" style="visibility: inherit;" fill="rgb(0, 0, 0)" stroke="rgb(204, 204, 204)" stroke-width="1px"></line><line x1="60" y1="129.45454545454547" x2="55" y2="129.45454545454547" style="visibility: inherit;" fill="rgb(0, 0, 0)" stroke="rgb(204, 204, 204)" stroke-width="1px"></line><line x1="60" y1="113.27272727272727" x2="55" y2="113.27272727272727" style="visibility: inherit;" fill="rgb(0, 0, 0)" stroke="rgb(204, 204, 204)" stroke-width="1px"></line><line x1="60" y1="97.0909090909091" x2="55" y2="97.0909090909091" style="visibility: inherit;" fill="rgb(0, 0, 0)" stroke="rgb(204, 204, 204)" stroke-width="1px"></line><line x1="60" y1="80.90909090909092" x2="55" y2="80.90909090909092" style="visibility: inherit;" fill="rgb(0, 0, 0)" stroke="rgb(204, 204, 204)" stroke-width="1px"></line><line x1="60" y1="64.72727272727273" x2="55" y2="64.72727272727273" style="visibility: inherit;" fill="rgb(0, 0, 0)" stroke="rgb(204, 204, 204)" stroke-width="1px"></line><line x1="60" y1="48.54545454545453" x2="55" y2="48.54545454545453" style="visibility: inherit;" fill="rgb(0, 0, 0)" stroke="rgb(204, 204, 204)" stroke-width="1px"></line><line x1="60" y1="32.363636363636346" x2="55" y2="32.363636363636346" style="visibility: inherit;" fill="rgb(0, 0, 0)" stroke="rgb(204, 204, 204)" stroke-width="1px"></line><line x1="60" y1="16.181818181818187" x2="55" y2="16.181818181818187" style="visibility: inherit;" fill="rgb(0, 0, 0)" stroke="rgb(204, 204, 204)" stroke-width="1px"></line><line x1="60" y1="0" x2="55" y2="0" style="visibility: inherit;" fill="rgb(0, 0, 0)" stroke="rgb(204, 204, 204)" stroke-width="1px"></line></g><g transform="translate(50, 0)"><text x="0" y="178" dx="0em" dy="0.3em" style="text-anchor: end; visibility: hidden; font-family: &quot;Helvetica Neue&quot;, sans-serif; font-size: 12px; font-weight: 200;" fill="rgb(50, 49, 63)" stroke="none" stroke-width="1px">-1e+3</text><text x="0" y="161.8181818181818" dx="0em" dy="0.3em" style="text-anchor: end; visibility: inherit; font-family: &quot;Helvetica Neue&quot;, sans-serif; font-size: 12px; font-weight: 200;" fill="rgb(50, 49, 63)" stroke="none" stroke-width="1px">0</text><text x="0" y="145.63636363636363" dx="0em" dy="0.3em" style="text-anchor: end; visibility: hidden; font-family: &quot;Helvetica Neue&quot;, sans-serif; font-size: 12px; font-weight: 200;" fill="rgb(50, 49, 63)" stroke="none" stroke-width="1px">1e+3</text><text x="0" y="129.45454545454547" dx="0em" dy="0.3em" style="text-anchor: end; visibility: inherit; font-family: &quot;Helvetica Neue&quot;, sans-serif; font-size: 12px; font-weight: 200;" fill="rgb(50, 49, 63)" stroke="none" stroke-width="1px">2e+3</text><text x="0" y="113.27272727272727" dx="0em" dy="0.3em" style="text-anchor: end; visibility: hidden; font-family: &quot;Helvetica Neue&quot;, sans-serif; font-size: 12px; font-weight: 200;" fill="rgb(50, 49, 63)" stroke="none" stroke-width="1px">3e+3</text><text x="0" y="97.0909090909091" dx="0em" dy="0.3em" style="text-anchor: end; visibility: inherit; font-family: &quot;Helvetica Neue&quot;, sans-serif; font-size: 12px; font-weight: 200;" fill="rgb(50, 49, 63)" stroke="none" stroke-width="1px">4e+3</text><text x="0" y="80.90909090909092" dx="0em" dy="0.3em" style="text-anchor: end; visibility: hidden; font-family: &quot;Helvetica Neue&quot;, sans-serif; font-size: 12px; font-weight: 200;" fill="rgb(50, 49, 63)" stroke="none" stroke-width="1px">5e+3</text><text x="0" y="64.72727272727273" dx="0em" dy="0.3em" style="text-anchor: end; visibility: inherit; font-family: &quot;Helvetica Neue&quot;, sans-serif; font-size: 12px; font-weight: 200;" fill="rgb(50, 49, 63)" stroke="none" stroke-width="1px">6e+3</text><text x="0" y="48.54545454545453" dx="0em" dy="0.3em" style="text-anchor: end; visibility: hidden; font-family: &quot;Helvetica Neue&quot;, sans-serif; font-size: 12px; font-weight: 200;" fill="rgb(50, 49, 63)" stroke="none" stroke-width="1px">7e+3</text><text x="0" y="32.363636363636346" dx="0em" dy="0.3em" style="text-anchor: end; visibility: inherit; font-family: &quot;Helvetica Neue&quot;, sans-serif; font-size: 12px; font-weight: 200;" fill="rgb(50, 49, 63)" stroke="none" stroke-width="1px">8e+3</text><text x="0" y="16.181818181818187" dx="0em" dy="0.3em" style="text-anchor: end; visibility: hidden; font-family: &quot;Helvetica Neue&quot;, sans-serif; font-size: 12px; font-weight: 200;" fill="rgb(50, 49, 63)" stroke="none" stroke-width="1px">9e+3</text><text x="0" y="0" dx="0em" dy="0.3em" style="text-anchor: end; visibility: hidden; font-family: &quot;Helvetica Neue&quot;, sans-serif; font-size: 12px; font-weight: 200;" fill="rgb(50, 49, 63)" stroke="none" stroke-width="1px">1e+4</text></g><line x1="60" y1="0" x2="60" y2="178" fill="rgb(0, 0, 0)" stroke="rgb(204, 204, 204)" stroke-width="1px"></line></g></g><g transform="translate(60, 0)" clip-path="url(#clip_0)"><clipPath id="clip_0"><rect width="270" height="178"></rect></clipPath><g><g><g><line x1="0" y1="0" x2="0" y2="178" fill="rgb(0, 0, 0)" stroke="rgb(60, 60, 60)" stroke-width="1px" opacity="0.25"></line><line x1="33.75" y1="0" x2="33.75" y2="178" fill="rgb(0, 0, 0)" stroke="rgb(60, 60, 60)" stroke-width="1px" opacity="0.25"></line><line x1="67.5" y1="0" x2="67.5" y2="178" fill="rgb(0, 0, 0)" stroke="rgb(60, 60, 60)" stroke-width="1px" opacity="0.25"></line><line x1="101.25" y1="0" x2="101.25" y2="178" fill="rgb(0, 0, 0)" stroke="rgb(60, 60, 60)" stroke-width="1px" opacity="0.25"></line><line x1="135" y1="0" x2="135" y2="178" fill="rgb(0, 0, 0)" stroke="rgb(60, 60, 60)" stroke-width="1px" opacity="0.25"></line><line x1="168.75" y1="0" x2="168.75" y2="178" fill="rgb(0, 0, 0)" stroke="rgb(60, 60, 60)" stroke-width="1px" opacity="0.25"></line><line x1="202.5" y1="0" x2="202.5" y2="178" fill="rgb(0, 0, 0)" stroke="rgb(60, 60, 60)" stroke-width="1px" opacity="0.25"></line><line x1="236.25" y1="0" x2="236.25" y2="178" fill="rgb(0, 0, 0)" stroke="rgb(60, 60, 60)" stroke-width="1px" opacity="0.25"></line><line x1="270" y1="0" x2="270" y2="178" fill="rgb(0, 0, 0)" stroke="rgb(60, 60, 60)" stroke-width="1px" opacity="0.25"></line></g><g><line x1="0" y1="178" x2="270" y2="178" fill="rgb(0, 0, 0)" stroke="rgb(60, 60, 60)" stroke-width="1px" opacity="0.25"></line><line x1="0" y1="161.8181818181818" x2="270" y2="161.8181818181818" fill="rgb(0, 0, 0)" stroke="rgb(60, 60, 60)" stroke-width="1px" opacity="0.25"></line><line x1="0" y1="145.63636363636363" x2="270" y2="145.63636363636363" fill="rgb(0, 0, 0)" stroke="rgb(60, 60, 60)" stroke-width="1px" opacity="0.25"></line><line x1="0" y1="129.45454545454547" x2="270" y2="129.45454545454547" fill="rgb(0, 0, 0)" stroke="rgb(60, 60, 60)" stroke-width="1px" opacity="0.25"></line><line x1="0" y1="113.27272727272727" x2="270" y2="113.27272727272727" fill="rgb(0, 0, 0)" stroke="rgb(60, 60, 60)" stroke-width="1px" opacity="0.25"></line><line x1="0" y1="97.0909090909091" x2="270" y2="97.0909090909091" fill="rgb(0, 0, 0)" stroke="rgb(60, 60, 60)" stroke-width="1px" opacity="0.25"></line><line x1="0" y1="80.90909090909092" x2="270" y2="80.90909090909092" fill="rgb(0, 0, 0)" stroke="rgb(60, 60, 60)" stroke-width="1px" opacity="0.25"></line><line x1="0" y1="64.72727272727273" x2="270" y2="64.72727272727273" fill="rgb(0, 0, 0)" stroke="rgb(60, 60, 60)" stroke-width="1px" opacity="0.25"></line><line x1="0" y1="48.54545454545453" x2="270" y2="48.54545454545453" fill="rgb(0, 0, 0)" stroke="rgb(60, 60, 60)" stroke-width="1px" opacity="0.25"></line><line x1="0" y1="32.363636363636346" x2="270" y2="32.363636363636346" fill="rgb(0, 0, 0)" stroke="rgb(60, 60, 60)" stroke-width="1px" opacity="0.25"></line><line x1="0" y1="16.181818181818187" x2="270" y2="16.181818181818187" fill="rgb(0, 0, 0)" stroke="rgb(60, 60, 60)" stroke-width="1px" opacity="0.25"></line><line x1="0" y1="0" x2="270" y2="0" fill="rgb(0, 0, 0)" stroke="rgb(60, 60, 60)" stroke-width="1px" opacity="0.25"></line></g></g></g><g><g><line x1="0" y1="161.8181818181818" x2="270" y2="161.8181818181818" fill="rgb(0, 0, 0)" stroke="rgb(153, 153, 153)" stroke-width="1.5px"></line></g></g><g><g><line x1="33.75" y1="0" x2="33.75" y2="178" fill="rgb(0, 0, 0)" stroke="rgb(153, 153, 153)" stroke-width="1.5px"></line></g></g><g><g><g><g><g><path stroke="rgb(255, 112, 67)" stroke-width="2px" d="M41.18175,-8.395699661791554L41.85675,1.589174479588138L42.53175,11.63782048940601L43.20675,21.38195242481507L43.881750000000004,29.05254937055895L44.55675,37.384502301587645L45.231750000000005,43.02473325796183L45.90675,51.22059481082226L46.58175000000001,57.579900827456086L47.25675,63.72451925373298L47.931749999999994,68.83856664829386L48.60675,73.41895574265924L49.281749999999995,78.65131130667334L49.95675,83.36873762476016L50.63175,87.94758902190358L51.30675,92.29084569578147L51.98175,95.81609219948989L52.65675,98.53573414491719L53.33175,102.12084944713945L54.006750000000004,105.39383343339242L54.68175,108.45417569422274L55.356750000000005,110.84809423823432L56.031749999999995,113.42821858419374L56.70675,116.21928435900801L57.38175,118.15034556429987L58.05675,120.40779094630047L58.73175,122.50912651095226L59.40675,124.40942413523689L60.08175,125.9276172495068L60.756750000000004,128.06213141320583L61.43175,129.56393348287918L62.106750000000005,131.12745474571872L62.78175,132.5009555980243L63.45675000000001,133.9248287211785L64.13175,135.1196850523839L64.80675,136.35114353325199L65.48174999999999,137.52723823290376L66.15675,138.83831707860935L66.83175,139.84765796734422L67.50675,140.89710022252808L68.18175,141.58378515127453L68.85675,142.43497839722926L69.53175,143.28025738634983L70.20675,144.10547454455897L70.88175,144.87415262890187L71.55675000000001,145.69748297027456L72.23175,146.36541991799578L72.90675,146.8971295786384L73.58175,147.63379324789332L74.25675000000001,148.21366085640645L74.93175000000001,148.71566622708963L75.60675,149.29568186072112L76.28175,149.94380668390426L76.95675,150.40106477206132L77.63175,151.00401364572969L78.30675,151.47626338541366L78.98174999999999,151.87594059072973L79.65674999999999,152.21582924701596L80.33175,152.54427394646953L81.00675,152.90426196642574L81.68175,153.2947452280621L82.35674999999999,153.65309295981314L83.03175,154.0483714386187L83.70675,154.3541634992685L84.38175,154.68548804984522L85.05675,154.94753310645186L85.73175,155.21085850689315L86.40675,155.50283039177793L87.08175,155.74785944112145L87.75675,156.02958774164375L88.43175000000001,156.27854338761765L89.10675,156.5221707302801L89.78175,156.68384272802956L90.45675,156.89836973926802L91.13175000000001,157.0679766420338L91.80675000000001,157.2698628207139L92.48175,157.4454957686002L93.15675,157.57492920166084L93.83175,157.7637597548832L94.50675,157.9660895931643L95.18175,158.09641742222493L95.85674999999999,158.2196192088836L96.53174999999999,158.3401183171004L97.20675,158.50244652847934L97.88175,158.60451992569912L98.55675,158.72800727235838L99.23174999999999,158.86077566024565L99.90675,158.9628346444162L100.58175,159.06344812995582L101.25675,159.1722751568265L101.93175,159.27482234507244L102.60675,159.36575980885456L103.28175,159.45061529471437L103.95675,159.5338593335225L104.63175,159.60469565049524L105.30675000000001,159.6845109316679L105.98175,159.76582971795847L106.65675,159.84645716637965L107.33175,159.9168089178587L108.00675000000001,159.98389077341142L108.68175000000001,160.05589680369084L109.35675,160.11216172889863L110.03175,160.17883439751319L110.70675,160.2416950143957L111.38175,160.3142589852887L112.05675,160.37001042324442L112.73174999999999,160.41757227789464L113.40674999999999,160.46910532074955L114.08175,160.51726939029243L114.75675,160.5494622206678L115.43175,160.5846303525312L116.10674999999999,160.6146378489699L116.78175,160.66016704276706L117.45675,160.69365644514266L118.13175,160.73161709928553L118.80675,160.76037954967697L119.48175,160.7950269188709L120.15675,160.8382300573506L120.83175,160.87843043941746L121.50675,160.90248612508958L122.18175000000001,160.92544178131038L122.85675,160.95000185217802L123.53175,160.9692320430917L124.20675,160.98865380632157L124.88175000000001,161.0220005154935L125.55675000000001,161.04656226996727L126.23175,161.07024932292896L126.90675,161.09281863811327L127.58175,161.1126562374667L128.25674999999998,161.12418222708806L128.93175,161.1470252178779L129.60675,161.16318487781928L130.28175,161.17232086820877L130.95675,161.1885430158649L131.63174999999998,161.21078415163763L132.30675,161.22815527519555L132.98175,161.24355807572857L133.65675,161.24976176388307L134.33175,161.27419027685235L135.00675,161.2821190880419L135.68175,161.29380903050625L136.35674999999998,161.31697325843604L137.03175,161.32708171243578L137.70675,161.33783393429962L138.38175,161.33963238974903L139.05675,161.34640644523526L139.73175,161.35497865662535L140.40675,161.363206951194L141.08175,161.3734835995383L141.75674999999998,161.37407574280294L142.43175,161.3821314048215L143.10675,161.3908125023944L143.78175000000002,161.40946669233242L144.45675,161.40610977988698L145.13175,161.4111598321101L145.80675,161.4223085010838L146.48175,161.43215883111904L147.15675,161.4450009071087L147.83175,161.45167224573117L148.50674999999998,161.45593450713443L149.18175000000002,161.46420774754347L149.85675,161.4781361489367L150.53175000000002,161.47442524626896L151.20675,161.47200032085152L151.88175,161.48323401625248L152.55675,161.4771832983235L153.23174999999998,161.47902900906223L153.90675,161.47433623048283L154.58175,161.48208290589224L155.25675,161.49090099600448L155.93175,161.48938661478132L156.60675,161.49241219306202L157.28175,161.49525252102632L157.95675,161.50521728215813L158.63174999999998,161.51848503113237L159.30675,161.51639860007813L159.98175,161.52370762845285L160.65675000000002,161.52490423766076L161.33175,161.5303675751948L162.00675,161.5271496280914L162.68175,161.53533136038422L163.35675,161.52619755640941L164.03175,161.52924237070977L164.70675,161.53599017548316L165.38174999999998,161.54004933988685L166.05675000000002,161.53233015255495L166.73175,161.53899482629083L167.40675000000002,161.54082306293313L168.08175,161.54657922830165L168.75675,161.54778647061357L169.43175,161.558027245347L170.10674999999998,161.55365832469178L170.78175,161.56368241283374L171.45675,161.55792035593112L172.13175,161.56410814444192L172.80675,161.5568366393174L173.48175,161.55982578320925L174.15675,161.5563801602276L174.83175,161.5565963423191L175.50674999999998,161.56008240353043L176.18175,161.5514974501527L176.85675,161.54901212254634L177.53175000000002,161.55329817408767L178.20675,161.55062958457845L178.88175,161.55647692281906L179.55675,161.56530200958466L180.23175,161.57450780556547L180.90675,161.57926180357578L181.58175,161.5864575166048L182.25674999999998,161.58021475002525L182.93175000000002,161.564622888545L183.60675,161.5620615871309L184.28175000000002,161.56909853904L184.95675,161.5674288256418L185.63175,161.56766138099522L186.30675,161.56625255376414L186.98174999999998,161.5747894823234L187.65675,161.58213985552618L188.33175,161.58618612681113L189.00675,161.58059083271954L189.68175,161.57566732658597L190.35675,161.57281068640955L191.03175,161.57684631445306L191.70675,161.58056979726945L192.38174999999998,161.5861826958305L193.05675,161.58505305198815L193.73175,161.58672308735188L194.40675000000002,161.59083938510935L195.08175,161.5905685312731L195.75675,161.5819865710205L196.43175,161.58070670028886L197.10675,161.5793766389283L197.78175,161.58491578542277L198.45675,161.5880800995967L199.13174999999998,161.59603869703443L199.80675000000002,161.58598476087036L200.48175,161.58498576660634L201.15675000000002,161.5811601607889L201.83175,161.58753674047745L202.50675,161.5907288884776L203.18175,161.59337150230098L203.85674999999998,161.59310728872634L204.53175,161.59459591169627L205.20675,161.60181797244667L205.88175,161.60240862022948L206.55675,161.59343622258046L207.23175,161.5924530491472L207.90675,161.58913854354972L208.58175,161.59065122998948L209.25674999999998,161.58966367084392L209.93175,161.5931617383007L210.60675,161.58898243900148L211.28175000000002,161.59593699834352L211.95675,161.58996630729635L212.63175,161.59285062608035L213.30675,161.59173705342144L213.98175,161.59069403120282L214.65675,161.59782664980912L215.33175,161.59403649101185L216.00674999999998,161.583637727196L216.68175000000002,161.59153447326773L217.35675,161.59073930502387L218.03175000000002,161.59209022656623L218.70675,161.59845205720717L219.38175,161.59849610996517L220.05675,161.60380634871558L220.73174999999998,161.59981899537271L221.40675,161.59860749115396L222.08175,161.5963836173536L222.75675,161.5948145263387L223.43175,161.58920819399424L224.10675,161.59396316185774L224.78175,161.6061471511402L225.45675,161.6023182298154L226.13174999999998,161.5970203418532L226.80675,161.59896787208746L227.48175,161.5851900418643L228.15675000000002,161.59230947231208L228.83175,161.58497051060226L229.50675,161.59687577962242L230.18175,161.5985045215482L230.85675,161.60334058441106L231.53175,161.60933750473544L232.20675,161.61078883020332L232.88174999999998,161.60809635262638L233.55675000000002,161.61071951922852L234.23175,161.60295559577284L234.90675000000002,161.59959650199497L235.58175,161.59330594793326" style="fill: none;" fill="none"></path></g></g></g></g><g opacity="0.2"><g><g><g><path stroke="rgb(255, 112, 67)" stroke-width="2px" d="M40.50675,-5.981394176136348L41.18175,11.809993430397725L41.85675,16.533883345170466L42.53175,26.691103160511375L43.20675,35.98669646661932L43.881750000000004,40.553034889914784L44.55675,49.87890589488637L45.231750000000005,51.48364763849432L45.90675,63.51313858309659L46.58175000000001,67.11827858664773L47.25675,72.94110990767047L47.931749999999994,76.50946946022728L48.60675,80.28944895241477L49.281749999999995,86.49978267045455L49.95675,90.44484357244318L50.63175,94.81584659090909L51.30675,98.80571959339488L51.98175,101.10395654296875L52.65675,102.61519455788353L53.33175,107.4985204190341L54.006750000000004,110.30330832741477L54.68175,113.0446884765625L55.356750000000005,114.4389717684659L56.031749999999995,117.29840491832385L56.70675,120.4058829012784L57.38175,121.04693732244317L58.05675,123.793958984375L58.73175,125.66112983842329L59.40675,127.25987056107954L60.08175,128.20490691583808L60.756750000000004,131.26390265447444L61.43175,131.8166365855824L62.106750000000005,133.47273663884943L62.78175,134.5612068758878L63.45675000000001,136.06063840553978L64.13175,136.91196954900568L64.80675,138.19833125443893L65.48174999999999,139.29138028231534L66.15675,140.80493534712357L66.83175,141.36166930042614L67.50675,142.4712636052912L68.18175,142.6138125443892L68.85675,143.71176826615766L69.53175,144.54817587002842L70.20675,145.34330028187145L70.88175,146.02716975541549L71.55675000000001,146.9324784823331L72.23175,147.3673253395774L72.90675,147.69469406960226L73.58175,148.73878875177556L74.25675000000001,149.08346226917612L74.93175000000001,149.46867428311435L75.60675,150.16570531116832L76.28175,150.91599391867896L76.95675,151.08695190429688L77.63175,151.90843695623224L78.30675,152.18463799493964L78.98174999999999,152.47545639870384L79.65674999999999,152.7256622314453L80.33175,153.03694099564987L81.00675,153.4442439963601L81.68175,153.8804701205167L82.35674999999999,154.19061455743963L83.03175,154.64128915682707L83.70675,154.81285159024324L84.38175,155.18247487571023L85.05675,155.34060069136186L85.73175,155.60584660755504L86.40675,155.94078821910512L87.08175,156.1154030151367L87.75675,156.4521801924272L88.43175000000001,156.65197685657847L89.10675,156.88761174427378L89.78175,156.92635072465376L90.45675,157.22016025612572L91.13175000000001,157.32238699618253L91.80675000000001,157.57269208873402L92.48175,157.7089451904297L93.15675,157.76907935125178L93.83175,158.0470055847168L94.50675,158.26958435058594L95.18175,158.29190916581587L95.85674999999999,158.40442188887164L96.53174999999999,158.5208669794256L97.20675,158.74593884554776L97.88175,158.75763002152877L98.55675,158.9132382923473L99.23174999999999,159.05992824207652L99.90675,159.11592312067205L100.58175,159.21436835826526L101.25675,159.33551569713245L101.93175,159.4286431274414L102.60675,159.5021660045277L103.28175,159.57789852350408L103.95675,159.65872539173472L104.63175,159.71095012595435L105.30675000000001,159.80423385342684L105.98175,159.88780789739434L106.65675,159.96739833901145L107.33175,160.02233654507722L108.00675000000001,160.0845135567405L108.68175000000001,160.16390584911L109.35675,160.19655911671032L110.03175,160.27884340043502L110.70675,160.33598593971945L111.38175,160.4231049416282L112.05675,160.453637580178L112.73174999999999,160.48891505986995L113.40674999999999,160.54640488503196L114.08175,160.5895154946067L114.75675,160.5977514662309L115.43175,160.63738255032627L116.10674999999999,160.65964909362793L116.78175,160.7284608334628L117.45675,160.74389054870605L118.13175,160.78855808049983L118.80675,160.80352322526412L119.48175,160.8469979726618L120.15675,160.90303476507015L120.83175,160.93873101251776L121.50675,160.93856965359774L122.18175000000001,160.95987526564164L122.85675,160.98684195847946L123.53175,160.99807732946223L124.20675,161.01778645116633L124.88175000000001,161.0720205792514L125.55675000000001,161.0834049016779L126.23175,161.1057799023715L126.90675,161.12667261088978L127.58175,161.1424126364968L128.25674999999998,161.1414712115201L128.93175,161.18128970406272L129.60675,161.18742436773127L130.28175,161.18602485379307L130.95675,161.21287623734906L131.63174999999998,161.24414585529675L132.30675,161.25421196053244L132.98175,161.2666622765281L133.65675,161.25906729611484L134.33175,161.31083304630627L135.00675,161.29401230482623L135.68175,161.31134394420278L136.35674999999998,161.3517196003307L137.03175,161.3422443934354L137.70675,161.3539622670954L138.38175,161.34233007292315L139.05675,161.35656752846458L139.73175,161.3678369737105L140.40675,161.37554939304698L141.08175,161.38889857205479L141.75674999999998,161.37496395769986L142.43175,161.39421489784934L143.10675,161.4038341487538L143.78175000000002,161.43744797723943L144.45675,161.40107441121881L145.13175,161.41873491044478L145.80675,161.43903150454435L146.48175,161.44693432617188L147.15675,161.4642640210932L147.83175,161.4616792536649L148.50674999999998,161.46232789923928L149.18175000000002,161.47661760815708L149.85675,161.49902875102651L150.53175000000002,161.4688588922674L151.20675,161.4683629327254L151.88175,161.50008455935392L152.55675,161.46810722143L153.23174999999998,161.48179757517033L153.90675,161.46729706261374L154.58175,161.49370291900635L155.25675,161.50412813117288L155.93175,161.48711504294656L156.60675,161.49695056048307L157.28175,161.49951301297276L157.95675,161.52016442385587L158.63174999999998,161.53838665459372L159.30675,161.51326895349675L159.98175,161.53467117101496L160.65675000000002,161.5266991514726L161.33175,161.5385625814958L162.00675,161.5223227074363L162.68175,161.54760395882346L163.35675,161.51249685044723L164.03175,161.5338095921603L164.70675,161.54611188264326L165.38174999999998,161.54613808649236L166.05675000000002,161.52075137155705L166.73175,161.54899183689463L167.40675000000002,161.54356541789662L168.08175,161.55521347635442L168.75675,161.54959733408148L169.43175,161.5733884074471L170.10674999999998,161.54710494370894L170.78175,161.5787185450467L171.45675,161.54927727057716L172.13175,161.57338982720808L172.80675,161.54592938163063L173.48175,161.56430949904703L174.15675,161.55121172575517L174.83175,161.5569206154563L175.50674999999998,161.56531149534746L176.18175,161.5386200200861L176.85675,161.5452841311368L177.53175000000002,161.55972725139964L178.20675,161.54662670031462L178.88175,161.56524793017994L179.55675,161.57853963973307L180.23175,161.5883164995367L180.90675,161.5863928005912L181.58175,161.59725108614833L182.25674999999998,161.57085060015592L182.93175000000002,161.54123509632458L183.60675,161.55821963500978L184.28175000000002,161.5796539669037L184.95675,161.5649242555445L185.63175,161.56801021402532L186.30675,161.56413931291755L186.98174999999998,161.5875948751623L187.65675,161.59316541533036L188.33175,161.59225553373858L189.00675,161.57219789158214L189.68175,161.56828206738558L190.35675,161.56852572614497L191.03175,161.5828997565183L191.70675,161.58615502149408L192.38174999999998,161.59460204367204L193.05675,161.58335858622465L193.73175,161.5892281403975L194.40675000000002,161.5970138317455L195.08175,161.5901622505188L195.75675,161.5691136306416L196.43175,161.5787868941914L197.10675,161.5773815468875L197.78175,161.59322450516441L198.45675,161.59282657085765L199.13174999999998,161.60797659319098L199.80675000000002,161.57090385662426L200.48175,161.5834872752103L201.15675000000002,161.5754217520627L201.83175,161.59710161001033L202.50675,161.5955171104778L203.18175,161.59733542303604L203.85674999999998,161.59271096836437L204.53175,161.59682884615117L205.20675,161.6126510635723L205.88175,161.60329459190368L206.55675,161.57997762610697L207.23175,161.5909782889973L207.90675,161.58416678515349L208.58175,161.5929202596491L209.25674999999998,161.58818233212557L209.93175,161.59840883948587L210.60675,161.58271349005267L211.28175000000002,161.60636883735657L211.95675,161.58101027072559L212.63175,161.59717710425636L213.30675,161.59006669443303L213.98175,161.58912949787486L214.65675,161.60852557771855L215.33175,161.58835125281593L216.00674999999998,161.56803958147222L216.68175000000002,161.60337959237532L217.35675,161.58954655265808L218.03175000000002,161.59411660887977L218.70675,161.60799480316857L219.38175,161.59856218910218L220.05675,161.6117717068412L220.73174999999998,161.59383796535838L221.40675,161.59679023482582L222.08175,161.59304780665312L222.75675,161.5924608898163L223.43175,161.58079869547757L224.10675,161.601095613653L224.78175,161.62442313506386L225.45675,161.59657484782826L226.13174999999998,161.5890735099099L226.80675,161.60188916743886L227.48175,161.5645232965296L228.15675000000002,161.60298861798373L228.83175,161.57396206803756L229.50675,161.61473368315262L230.18175,161.60094763443686L230.85675,161.61059467870538L231.53175,161.618332885222L232.20675,161.61296581840514L232.88174999999998,161.604057636261L233.55675000000002,161.61465426913173L234.23175,161.59130971058931L234.90675000000002,161.59455786132813L235.58175,161.5838701168407" style="fill: none;" fill="none"></path></g></g></g></g></g></g><g transform="translate(60, 178)" clip-path="url(#clip_1)"><clipPath id="clip_1"><rect width="270" height="22"></rect></clipPath><g><g><line x1="0" y1="0" x2="0" y2="5" style="visibility: inherit;" fill="rgb(0, 0, 0)" stroke="rgb(204, 204, 204)" stroke-width="1px"></line><line x1="33.75" y1="0" x2="33.75" y2="5" style="visibility: inherit;" fill="rgb(0, 0, 0)" stroke="rgb(204, 204, 204)" stroke-width="1px"></line><line x1="67.5" y1="0" x2="67.5" y2="5" style="visibility: inherit;" fill="rgb(0, 0, 0)" stroke="rgb(204, 204, 204)" stroke-width="1px"></line><line x1="101.25" y1="0" x2="101.25" y2="5" style="visibility: inherit;" fill="rgb(0, 0, 0)" stroke="rgb(204, 204, 204)" stroke-width="1px"></line><line x1="135" y1="0" x2="135" y2="5" style="visibility: inherit;" fill="rgb(0, 0, 0)" stroke="rgb(204, 204, 204)" stroke-width="1px"></line><line x1="168.75" y1="0" x2="168.75" y2="5" style="visibility: inherit;" fill="rgb(0, 0, 0)" stroke="rgb(204, 204, 204)" stroke-width="1px"></line><line x1="202.5" y1="0" x2="202.5" y2="5" style="visibility: inherit;" fill="rgb(0, 0, 0)" stroke="rgb(204, 204, 204)" stroke-width="1px"></line><line x1="236.25" y1="0" x2="236.25" y2="5" style="visibility: inherit;" fill="rgb(0, 0, 0)" stroke="rgb(204, 204, 204)" stroke-width="1px"></line><line x1="270" y1="0" x2="270" y2="5" style="visibility: inherit;" fill="rgb(0, 0, 0)" stroke="rgb(204, 204, 204)" stroke-width="1px"></line></g><g transform="translate(0, 8)"><text x="0" y="0" dx="0em" dy="0.95em" style="text-anchor: middle; visibility: hidden; font-family: &quot;Helvetica Neue&quot;, sans-serif; font-size: 12px; font-weight: 200;" fill="rgb(50, 49, 63)" stroke="none" stroke-width="1px">-5k</text><text x="33.75" y="0" dx="0em" dy="0.95em" style="text-anchor: middle; visibility: inherit; font-family: &quot;Helvetica Neue&quot;, sans-serif; font-size: 12px; font-weight: 200;" fill="rgb(50, 49, 63)" stroke="none" stroke-width="1px">0</text><text x="67.5" y="0" dx="0em" dy="0.95em" style="text-anchor: middle; visibility: inherit; font-family: &quot;Helvetica Neue&quot;, sans-serif; font-size: 12px; font-weight: 200;" fill="rgb(50, 49, 63)" stroke="none" stroke-width="1px">5k</text><text x="101.25" y="0" dx="0em" dy="0.95em" style="text-anchor: middle; visibility: inherit; font-family: &quot;Helvetica Neue&quot;, sans-serif; font-size: 12px; font-weight: 200;" fill="rgb(50, 49, 63)" stroke="none" stroke-width="1px">10k</text><text x="135" y="0" dx="0em" dy="0.95em" style="text-anchor: middle; visibility: inherit; font-family: &quot;Helvetica Neue&quot;, sans-serif; font-size: 12px; font-weight: 200;" fill="rgb(50, 49, 63)" stroke="none" stroke-width="1px">15k</text><text x="168.75" y="0" dx="0em" dy="0.95em" style="text-anchor: middle; visibility: inherit; font-family: &quot;Helvetica Neue&quot;, sans-serif; font-size: 12px; font-weight: 200;" fill="rgb(50, 49, 63)" stroke="none" stroke-width="1px">20k</text><text x="202.5" y="0" dx="0em" dy="0.95em" style="text-anchor: middle; visibility: inherit; font-family: &quot;Helvetica Neue&quot;, sans-serif; font-size: 12px; font-weight: 200;" fill="rgb(50, 49, 63)" stroke="none" stroke-width="1px">25k</text><text x="236.25" y="0" dx="0em" dy="0.95em" style="text-anchor: middle; visibility: inherit; font-family: &quot;Helvetica Neue&quot;, sans-serif; font-size: 12px; font-weight: 200;" fill="rgb(50, 49, 63)" stroke="none" stroke-width="1px">30k</text><text x="270" y="0" dx="0em" dy="0.95em" style="text-anchor: middle; visibility: hidden; font-family: &quot;Helvetica Neue&quot;, sans-serif; font-size: 12px; font-weight: 200;" fill="rgb(50, 49, 63)" stroke="none" stroke-width="1px">35k</text></g><line x1="0" y1="0" x2="270" y2="0" fill="rgb(0, 0, 0)" stroke="rgb(204, 204, 204)" stroke-width="1px"></line></g></g></g></g></svg>