<?xml version="1.0" encoding="utf-8"?>
<!-- Generator: Adobe Illustrator 21.0.0, SVG Export Plug-In . SVG Version: 6.00 Build 0)  -->
<svg version="1.1" id="Layer_1" xmlns="http://www.w3.org/2000/svg" xmlns:xlink="http://www.w3.org/1999/xlink" x="0px" y="0px"
	 viewBox="0 0 248.7 160" style="enable-background:new 0 0 248.7 160;" xml:space="preserve">
<style type="text/css">
	.st0{fill:none;stroke:#8E8E8E;stroke-width:2;stroke-miterlimit:10;}
	.st1{fill:none;stroke:#8E8E8E;stroke-width:2;stroke-miterlimit:10;stroke-dasharray:6,6;}
	.st2{fill:none;stroke:#8E8E8E;stroke-width:2;stroke-linejoin:round;stroke-miterlimit:10;}
	.st3{fill:#8E8E8E;stroke:#8E8E8E;stroke-miterlimit:10;}
	.st4{display:none;}
	.st5{display:inline;opacity:0.49;}
	.st6{fill:#527FFF;}
</style>
<g>
	<line class="st0" x1="9" y1="139" x2="240" y2="139"/>
	<line class="st1" x1="177" y1="121" x2="235" y2="121"/>
	<line class="st1" x1="9" y1="121" x2="61" y2="121"/>
	<line class="st0" x1="9" y1="99" x2="60" y2="99"/>
	<line class="st0" x1="177" y1="99" x2="236" y2="99"/>
	<g>
		<circle class="st2" cx="153.5" cy="80.5" r="0.5"/>
		<line class="st0" x1="109" y1="58" x2="75" y2="58"/>
		<line class="st0" x1="99" y1="66" x2="84" y2="66"/>
		<line class="st0" x1="93" y1="74" x2="67" y2="74"/>
		<g>
			<g>
				<g>
					<path class="st2" d="M123.3,90.3c-0.4-0.3-0.8-0.5-1.3-0.6c-4.9-1.4-11.1,5.2-14,14.8c-2.8,9.6-1.2,18.6,3.7,20
						c3.1,0.9,6.8-2.2,8.7-4.4c2.5-2.9,4.2-6.8,5.2-10.4c1.3-4.6,1.7-9,1.1-12.5c0.9,3.9,1,9.5-0.2,17.4c-0.5,3.4,2.1,6.4,5.5,6.4
						h26.2c3.9,0,6.7-2.8,5.9-6.6l-0.1-2.9 M158,59l-6.5-2.2C112.9,47.5,100,63,96,69.4l-3.9,6.9c-2,2.4-5.3,4.6-10.9,4.5
						c-7.3,0.5-11,4.6-12.8,9.1c0,0-1.1,3-1.1,3.9l-0.1,0.1c-0.8,3.9-0.5,7.1-0.5,7.1c1.8-1.6,3.5-3,5-4.2c-1.4,2.2-2.7,4.8-3.6,7.7
						c-1.7,5.3-3.9,17.3,3.1,20c3.4,1.3,7.2-1.2,9.5-3.5c2.6-2.7,4.9-6.6,6.3-11.3c2.1-6.8,1.9-13.2-0.3-16.9 M131.9,101.3
						c1.2,4.2,1.9,8.1,2.5,9.7c0-0.1,0-0.1,0-0.2v0.2h8.4l0.4-1c1-1.9,5.1-3,5.1-3h9.7c0,0,2.7,1.7,1.9,3.2l-0.3,1.8h5.7l2.1-5.1
						l1.5-4.2c1.2-3.3,2-6.8,2.5-10.4l2-15.7c0.6-4.4-0.7-8.8-3.3-12.1c-2.7-3.4-6.6-5.3-10.7-5.4h-0.1l-7.1-0.1
						c0,0-6.5-0.6-11.4,5.6 M81.3,98.5c-3.2-0.3-7.1,3.5-8.8,8.9c-1.5,4.7-0.9,9.2,1.1,11.2 M121.7,96.9c-3.4-0.4-7.3,3.9-9.1,9.9
						c-1.5,5.2-1,10.2,1.2,12.4 M162.1,75l-1.7,13.1c-0.4,3.1-2.9,5.4-6,5.4c-0.1,0-0.1,0-0.2,0c-1.8,0-3.4-0.7-4.6-2.1
						c-1.2-1.3-1.8-3.2-1.6-5l1.7-13.1c0.4-3.1,2.9-5.4,6-5.4c1.8,0,3.6,0.7,4.8,2.1S162.3,73.2,162.1,75z"/>
				</g>
				<path class="st2" d="M159.2,123.4l-1.5,1.2c0,0,2,0,4.3,0c5.7,0,8.9-2.5,10.4-6c2.2-5.3,0.6-12.9-2-18.5"/>
			</g>
			<path class="st2" d="M126.9,84.2c0,0-10.7-16.5-26.5,10.5"/>
			<line class="st2" x1="84" y1="117" x2="101" y2="117"/>
			<circle class="st2" cx="154" cy="80" r="4"/>
		</g>
	</g>
	<g>
		<path class="st2" d="M168,56.1h6.8c4.7,0,8.9-3.3,9.6-8c0.8-5.8-3.6-10.8-9.3-10.8c-4.3,0-7.9,2.9-9,6.9"/>
		<path class="st2" d="M78.7,39.5c-1,1-1.7,2.1-2.3,3.3"/>
		<path class="st2" d="M81,37.7c-0.5,0.3-0.9,0.6-1.3,0.9"/>
		<path class="st2" d="M96.9,42.5c-1.8-3.8-5.7-6.3-10.2-6.3c-1.6,0-3.1,0.3-4.5,0.9"/>
		<path class="st2" d="M147.1,27.1c-3.1-5.8-9.2-9.7-16.2-9.7c-0.8,0-1.6,0.1-2.4,0.2c-2.8-4.3-7.6-7.1-13.1-7.1
			c-8.6,0-15.6,7-15.6,15.6l0,0c-4.6,0.4-8.5,3.6-9.8,7.9"/>
		<path class="st2" d="M136.5,39.7c0-7.1,5.7-12.8,12.8-12.8c5.2,0,9.8,3.2,11.7,7.7c0.3,0,0.7-0.1,1-0.1c3.2,0,5.9,2.2,6.7,5.2"/>
	</g>
	<g>
		<g>
			<line class="st2" x1="176.5" y1="12" x2="176.5" y2="21.4"/>
			<line class="st2" x1="201.5" y1="37" x2="192.1" y2="37"/>
			<line class="st2" x1="192.9" y1="20.6" x2="187.1" y2="26.4"/>
			<line class="st2" x1="165.9" y1="26.4" x2="160.1" y2="20.6"/>
			<line class="st2" x1="192.9" y1="53.4" x2="187.1" y2="47.6"/>
			<path class="st2" d="M162.1,30.9c2.4-5.6,7.9-9.5,14.4-9.5c8.6,0,15.6,7,15.6,15.6c0,4.9-2.3,9.4-5.9,12.2"/>
			<path class="st2" d="M176.5,25.1c6.5,0,11.9,5.3,11.9,11.9"/>
		</g>
	</g>
	<g>
		<g>
			<g>
				<path class="st3" d="M53.4,29.2c2.1-0.3,4.2-1.4,6.3-3.6c0-2.1,0-4.2,0.1-6.3c-2.1,2.2-4.2,3.2-6.3,3.6
					C53.4,25,53.4,27.1,53.4,29.2z"/>
			</g>
			<g>
				<path class="st3" d="M47.1,34.7c2.1,0.8,4.2,1.1,6.3,0.8c0-2.1,0-4.2,0.1-6.3c-2.1,0.3-4.2,0-6.3-0.8
					C47.1,30.5,47.1,32.6,47.1,34.7z"/>
			</g>
			<g>
				<path class="st3" d="M40.8,25.7c2.1,1,4.2,2,6.3,2.7c0-1.9,0-3.8,0-5.7C45.1,22,43,21,40.9,20C40.9,21.9,40.8,23.8,40.8,25.7z"
					/>
			</g>
			<g>
				<path class="st3" d="M40.7,38c2.1,1.1,4.2,2.2,6.3,3c0-2.1,0-4.2,0.1-6.3c-2.1-0.8-4.2-1.9-6.3-3C40.8,33.8,40.7,35.9,40.7,38z"
					/>
			</g>
			<g>
				<path class="st3" d="M53.3,41.8c2.1-0.3,4.2-1.4,6.3-3.6c0-2.1,0-4.2,0.1-6.3c-2.1,2.2-4.2,3.2-6.3,3.6
					C53.3,37.6,53.3,39.7,53.3,41.8z"/>
			</g>
			<line class="st2" x1="59.1" y1="27" x2="59.1" y2="40.6"/>
			<g>
				<path class="st3" d="M46.9,47.3c2.1,0.8,4.2,1.1,6.3,0.8c0-2.1,0-4.2,0.1-6.3c-2.1,0.3-4.2,0-6.3-0.8C47,43.1,47,45.2,46.9,47.3
					z"/>
			</g>
			<g>
				<path class="st3" d="M28.1,34.3c2.1-0.4,4.2,0,6.3,0.8c0-2.1,0-4.2,0.1-6.3c-2.1-0.7-4.2-1.1-6.3-0.8
					C28.2,30.1,28.1,32.2,28.1,34.3z"/>
			</g>
			<g>
				<path class="st3" d="M21.9,31.6c2.1-2.2,4.2-3.2,6.3-3.6c0-2.1,0-4.2,0.1-6.3c-2.1,0.3-4.2,1.4-6.3,3.6
					C21.9,27.4,21.9,29.5,21.9,31.6z"/>
			</g>
			<g>
				<path class="st3" d="M21.8,44.2c2.1-2.2,4.2-3.2,6.3-3.6c0-2.1,0-4.2,0.1-6.3c-2.1,0.3-4.2,1.4-6.3,3.6
					C21.8,40,21.8,42.1,21.8,44.2z"/>
			</g>
			<g>
				<path class="st3" d="M34.5,28.7c2.1,0.7,4.2,1.9,6.3,3c0-2.1,0-4.2,0.1-6.3c-2.1-1.1-4.2-2.2-6.3-3
					C34.5,24.5,34.5,26.6,34.5,28.7z"/>
			</g>
			<g>
				<path class="st3" d="M28.2,22.7c2.1-0.4,4.2,0,6.3,0.8c0-2.1,0-4.2,0.1-6.3c-2.1-0.7-4.2-1.1-6.3-0.8
					C28.3,18.5,28.3,20.6,28.2,22.7z"/>
			</g>
			<g>
				<path class="st3" d="M34.4,41.4c2.1,0.7,4.2,1.9,6.3,3c0-2.1,0-4.2,0.1-6.3c-2.1-1.1-4.2-2.2-6.3-3
					C34.4,37.2,34.4,39.3,34.4,41.4z"/>
			</g>
			<path class="st0" d="M59.2,28.6c0-3.3-0.1-4.8,0-8.1c-12.3,11.4-24.7-11.7-37-0.4v23c12.3-11.3,24.7,12.9,37,1.5c0-1.7,0-3.3,0-5
				"/>
		</g>
		<line class="st0" x1="22.2" y1="29.6" x2="22.2" y2="98.6"/>
	</g>
</g>
<g id="Guides" class="st4">
	<g class="st5">
		<path class="st6" d="M345,9v142H9V9H345 M354,0H0v160h354V0L354,0z"/>
	</g>
</g>
</svg>
